<?xml version="1.0" encoding="UTF-8"?>
<!DOCTYPE svg  PUBLIC '-//W3C//DTD SVG 1.1//EN'  'http://www.w3.org/Graphics/SVG/1.1/DTD/svg11.dtd'>
<svg enable-background="new 0 0 612 792" version="1.1" viewBox="0 0 612 792" xml:space="preserve" xmlns="http://www.w3.org/2000/svg">
<linearGradient id="f" x1="561.51" x2="-179.06" y1="395.65" y2="396.67" gradientUnits="userSpaceOnUse">
	<stop stop-color="#0E4F7B" offset="0"/>
	<stop stop-color="#165883" stop-opacity=".8214" offset=".1651"/>
	<stop stop-color="#2A729C" stop-opacity=".503" offset=".4594"/>
	<stop stop-color="#4BA2C7" stop-opacity=".0844" offset=".8463"/>
	<stop stop-color="#52AFD3" stop-opacity="0" offset=".9243"/>
</linearGradient>
<rect width="612" height="792" fill="url(#f)"/>
	<linearGradient id="d" x1="561.1" x2="-178.29" y1="750.31" y2="751.33" gradientUnits="userSpaceOnUse">
		<stop stop-color="#001A39" offset="0"/>
		<stop stop-color="#00233F" stop-opacity=".77" offset=".2126"/>
		<stop stop-color="#00364E" stop-opacity=".3616" offset=".5901"/>
		<stop stop-color="#004758" stop-opacity="0" offset=".9243"/>
	</linearGradient>
	<rect y="709.33" width="612" height="82.667" fill="url(#d)"/>
	<linearGradient id="e" x1="305.74" x2="306.26" y1="713.69" y2="787.89" gradientUnits="userSpaceOnUse">
		<stop stop-color="#001A39" offset="0"/>
		<stop stop-color="#00233F" stop-opacity=".77" offset=".2126"/>
		<stop stop-color="#00364E" stop-opacity=".3616" offset=".5901"/>
		<stop stop-color="#004758" stop-opacity="0" offset=".9243"/>
	</linearGradient>
	<rect y="709.33" width="612" height="82.667" fill="url(#e)" opacity=".82"/>
	<g opacity=".2">
			<path d="m92.984 491.02l-0.1983-370.84c0.4553 0 0.8781-0.0259 1.2569-0.0769l56.063 367.11c-18.82 2.5204-38.039 3.8045-57.122 3.8138zm-57.094-3.7529c-18.994-2.5244-37.952-6.3582-56.347-11.395l111.09-355.94c0.2762 0.0756 0.558 0.1313 0.8611 0.1718l-55.608 367.17zm170.55-11.518l-111.55-355.82c0.2663-0.073 0.5219-0.1625 0.7818-0.2739l164.81 337.18c-17.453 7.4845-35.638 13.848-54.048 18.912zm-281.02-18.752c-17.417-7.45-34.421-16.151-50.54-25.861l214.15-311.91c0.2769 0.1672 0.5615 0.3131 0.8455 0.4351l-164.45 337.34zm385.55-26.043l-214.45-311.73c0.3151-0.1904 0.6217-0.4059 0.9113-0.6407l259.44 280.12c-14.418 11.718-29.862 22.568-45.901 32.249zm-482.04-32.045c-14.414-11.694-28.062-24.46-40.565-37.944l298.91-243.18c0.262 0.2826 0.5488 0.5512 0.8526 0.7979l-259.2 280.32zm568.48-38.182l-299.13-242.94c0.2514-0.2726 0.4808-0.5578 0.6812-0.8497l332.88 200.76c-10.334 15.033-21.919 29.511-34.433 43.03zm-643.5-42.748c-10.38-15.071-19.686-30.971-27.657-47.257l359.88-154.57c0.1296 0.264 0.2854 0.53 0.4645 0.79l-332.69 201.03zm705.57-47.61l-360.05-154.22c0.1175-0.2408 0.2131-0.4802 0.291-0.7303l379.93 104.28c-5.3986 17.26-12.186 34.308-20.174 50.668zm-753.44-50.263c-5.4107-17.223-9.5368-34.978-12.264-52.773l391.89-52.702c0.0432 0.2826 0.1027 0.5426 0.1813 0.794l-379.81 104.68zm785.82-53.187l-391.95-52.3c0.0545-0.3588 0.0821-0.7595 0.0821-1.1913v-0.4272h395.91v0.4272c1e-4 17.871-1.3595 35.868-4.039 53.491zm-406.28-53.278h-395.91v-0.2136c0-17.727 1.3376-35.583 3.9753-53.071l392.01 51.883c-0.0545 0.3602-0.0821 0.7595-0.0821 1.1879v0.2136zm14.324-1.4254c-0.0432-0.2806-0.1027-0.5379-0.1813-0.7867l379.68-105.09c5.4326 17.22 9.5807 34.974 12.328 52.767l-391.83 53.105zm-14.062-0.7754l-380.06-103.88c5.3795-17.269 12.149-34.327 20.12-50.701l360.23 153.86c-0.1161 0.2394-0.2103 0.4755-0.2868 0.7209zm13.587-0.7435c-0.131-0.2666-0.2882-0.5333-0.4674-0.7926l332.45-201.38c10.395 15.058 19.72 30.947 27.711 47.225l-359.69 154.95zm-12.835-0.7727l-333.11-200.41c10.314-15.041 21.881-29.53 34.379-43.062l299.42 242.62c-0.2542 0.2746-0.4837 0.5618-0.6841 0.8537zm11.692-0.861c-0.2655-0.2859-0.553-0.5538-0.8533-0.7973l258.86-280.6c14.426 11.675 28.088 24.427 40.61 37.901l-298.61 243.49zm-10.166-0.7833l-259.76-279.86c14.407-11.733 29.838-22.598 45.863-32.295l214.81 311.51c-0.3129 0.1897-0.6195 0.4059-0.9106 0.6427zm8.411-0.6474c-0.2825-0.1698-0.5693-0.317-0.854-0.4384l164.05-337.51c17.421 7.4288 34.433 16.11 50.565 25.802l-213.76 312.15zm-6.6605-0.4278l-165.21-337.01c17.444-7.5031 35.619-13.884 54.021-18.967l111.98 355.7c-0.267 0.0736-0.524 0.1645-0.786 0.2772zm5.0318-0.2799c-0.2733-0.0743-0.5537-0.13-0.8575-0.1705l55.183-367.22c18.999 2.5052 37.962 6.3197 56.364 11.339l-110.69 356.06zm-3.3961-0.1678l-56.499-367.05c18.82-2.5417 38.039-3.8444 57.124-3.8729l0.6231 370.84c-0.4517 7e-4 -0.8716 0.0265-1.2483 0.0776z" fill="#fff"/>
	</g>
		<ellipse cx="92.769" cy="113.43" rx="11.372" ry="10.42" fill="#fff" opacity=".75" stroke="#fff" stroke-linejoin="round" stroke-miterlimit="10" stroke-width="6"/>
<path d="m234.94 679.39c-3.0863-14.416-15.886-25.228-31.222-25.228-0.0071 0-0.0161 7e-4 -0.0258 7e-4 -3.5316-4.694-9.1329-7.7433-15.462-7.7433-7.622 0-14.199 4.4177-17.355 10.824-4.1357-1.9543-8.7399-3.0812-13.618-3.0812-0.7661 0-1.5154 0.062-2.2672 0.1135-1.8-11.037-11.35-19.472-22.899-19.472-11.165 0-20.481 7.8801-22.714 18.378-3.6541-1.8322-7.7647-2.8907-12.131-2.8907-5.9221 0-11.381 1.92-15.839 5.1411-4.6597-7.1676-12.724-11.916-21.912-11.916-9.91 0-18.53 5.5167-22.96 13.644-4.5242-2.5197-9.728-3.9647-15.273-3.9647-17.372 0-31.456 14.084-31.456 31.456 0 9.9389 4.619 18.787 11.818 24.552-0.1524 0.0374-0.2962 0.0903-0.4473 0.1303h248.67c2.0265-3.0565 3.2328-6.703 3.2328-10.646 0-10.281-8.021-18.666-18.143-19.297z" fill="#fff" opacity=".46"/>
<path d="m25.86 199.27c-3.0326 0-5.7938 3.3017-5.5595 6.1603 0.4738 5.7809 19.996 7.1705 21.323 2.6217 0 0 5.9704 7.8347 12.225 0.6004 5.2752 3.9803 15.622-0.0985 18.006-1.3268 1.0424-0.5375 10.93 6.981 22.555-0.9477 0.6456-0.4405 4.7699 0.8211 6.0652-1.3268-0.1895 5.2441 13.457 5.6861 14.784 1.5163 1.1054 1.8317 7.6762 3.8537 10.33 1.8954 1.1372 3.348 9.8561 3.0637 11.909-0.6952 2.6535 1.1372 5.6831 1.081 6.9181-1.9901 1.2949-3.2221-2.8112-5.6543-5.8438-4.3275-1.1372-2.2744-3.6649-1.9587-4.6126 0.1262-0.3791-2.3377-13.141-5.8123-16.805-1.8321-1.2005-1.1372-5.8442-1.2005-7.2024-0.5686 0.4105-2.8116-8.1815-3.854-10.456-3.0959 0.3791-4.6751-17.82-10.199-22.839-4.1065-0.4424 0.5368-5.6232-5.4336-9.9825-4.5807 0.8214-1.2001-1.2005-7.1705-5.2437-6.7285 0.1895-2.6535-8.2722-6.3243-13.047-0.5053-1.0106 1.2316-8.213 0.6315-8.1182 8.0235-3.2221-0.3791-10.314 3.854-9.7456 7.4552 1e-4 1e-4 -4.849-0.2528-4.6595 3.6327z" fill="#fff" opacity=".72"/>
<path d="m402.47 165.43c-12.286 10.914 3.3899 32.013 20.752 30.185-2.8592 15.505 14.919 21.975 24.053 22.638 8.9315 0.6484 26.854-3.3604 30.656-9.4326 8.8137 5.2468 14.002 10.67 37.259 9.4326 8.4765-0.4533 31.098-3.8321 32.071-12.262 19.897 6.4259 39.617-14.62 28.298-29.242-2.8298-3.3014-12.999-10.199-22.314-10.906-1.0612-8.3714-14.473-15.033-24.377-14.562 2.3582-10.848-8.0177-15.092-16.979-15.564-11.319-0.4716-16.979 3.773-24.053 12.262-11.791-12.734-50.494-6.3082-55.21 11.142 0 0-18.276-4.2447-30.155 6.3081z" fill="#001A39" opacity=".15"/>
<path d="m406.79 160.76c-6.5127 5.7852 1.7969 16.969 11 16-1.5156 8.2187 7.9082 11.648 12.75 12 4.7344 0.3437 14.234-1.7813 16.25-5 4.6719 2.7812 7.4219 5.6562 19.75 5 4.4932-0.2403 16.484-2.0313 17-6.5 10.547 3.4062 21-7.75 15-15.5-1.5-1.75-6.8906-5.4063-11.828-5.7813-0.5625-4.4375-7.6719-7.9687-12.922-7.7187 1.25-5.75-4.25-8-9-8.25-6-0.25-9 2-12.75 6.5-6.25-6.75-26.766-3.3438-29.266 5.9062 0 0-9.6875-2.25-15.984 3.3438z" fill="#001A39" opacity=".15"/>
</svg>
